<svg width="183" height="36" viewBox="0 0 183 36" fill="none" xmlns="http://www.w3.org/2000/svg">
<path fill-rule="evenodd" clip-rule="evenodd" d="M0 21.2269C2.89629 23.5966 7.00375 26.0168 11.5851 26.7731C20.2214 28.2857 17.641 19.6638 17.0618 17.2437L0 21.2269Z" fill="#165BE4"/>
<path fill-rule="evenodd" clip-rule="evenodd" d="M0.369263 1.86556C5.84588 4.84037 9.42674 6.70592 13.6395 10.7396C16.7465 13.7648 21.5385 20.5716 17.9576 26.1178C25.646 23.7985 39.0215 13.3614 44.4455 8.16812C46.0779 6.60508 49.9221 2.4706 50.9753 0C31.9125 8.82358 18.1683 5.84878 0.369263 1.86556Z" fill="#165BE4"/>
<path fill-rule="evenodd" clip-rule="evenodd" d="M22.0123 11.6984C22.8549 14.3707 23.7501 16.2362 22.9602 19.564C22.223 22.7909 20.8011 24.4044 17.9575 26.0178C26.7517 23.6985 47.9736 6.85803 50.8699 0.0512695C46.3938 6.10173 29.0687 10.4379 22.0123 11.6984Z" fill="#296FF2"/>
<path fill-rule="evenodd" clip-rule="evenodd" d="M45.7085 31.7646H9.00462C8.68866 32.3697 8.37271 32.9243 8.16207 33.2773C7.26685 34.7899 8.00409 35.9495 9.84718 35.9495C14.8499 35.8991 19.8525 35.9495 24.8552 35.9495C29.8579 35.9495 34.8079 35.9495 39.8106 36C41.6537 36 43.8654 34.8403 44.8133 33.3277C45.0766 32.7731 45.3925 32.2689 45.7085 31.7646Z" fill="#1B4BB7"/>
<path fill-rule="evenodd" clip-rule="evenodd" d="M19.5367 28.4373H47.7624C48.2363 27.681 48.6576 26.9247 49.1315 26.1684C50.606 23.7987 52.0805 21.4289 53.555 19.0591C54.4502 17.5465 53.7656 16.3364 51.9225 16.3364C47.815 16.3364 43.6549 16.3364 39.5475 16.3364C35.598 20.0171 27.1198 26.2693 19.5367 28.4373Z" fill="#1B4BB7"/>
<path d="M69.5104 19.7743C69.5104 20.6063 69.6684 21.2869 69.9054 21.9676C70.2213 22.6483 70.5373 23.1777 71.0112 23.6315C71.4852 24.1609 72.0381 24.539 72.591 24.7659C73.2229 25.0685 73.8548 25.1441 74.5657 25.1441C75.1977 25.1441 75.7506 25.0685 76.1455 24.9172C76.6195 24.7659 77.0934 24.539 77.4094 24.2365C77.8043 23.934 78.1203 23.6315 78.3572 23.2533C78.5942 22.8752 78.8312 22.5726 78.9891 22.1945H82.4647C82.2277 23.0264 81.9118 23.7071 81.4378 24.4634C80.9639 25.2197 80.411 25.7491 79.779 26.3542C79.0681 26.8836 78.3572 27.3374 77.4883 27.6399C76.6195 27.9424 75.6716 28.1693 74.6447 28.1693C73.4599 28.1693 72.433 27.9424 71.4062 27.4886C70.3793 27.0348 69.5104 26.4298 68.7205 25.7491C67.9306 24.9928 67.3777 24.1609 66.9038 23.1021C66.4298 22.0432 66.1929 20.9844 66.1929 19.7743C66.1929 18.6399 66.4298 17.5054 66.9038 16.4466C67.3777 15.3878 68.0096 14.5558 68.7205 13.7239C69.5104 12.9676 70.3003 12.4382 71.4062 11.9844C72.433 11.5306 73.4599 11.3037 74.6447 11.3037C75.6716 11.3037 76.5405 11.455 77.4094 11.8331C78.2782 12.2113 78.9891 12.5894 79.7001 13.1188C80.411 13.7239 80.8849 14.2533 81.3588 15.0096C81.8328 15.7659 82.1487 16.4466 82.3857 17.2785H78.9102C78.8312 16.9004 78.5942 16.5222 78.3572 16.1441C78.1203 15.7659 77.8043 15.4634 77.4094 15.1609C77.0144 14.8583 76.6195 14.6315 76.2245 14.4802C75.7506 14.3289 75.1977 14.2533 74.6447 14.2533C73.9338 14.2533 73.3019 14.4046 72.67 14.6315C72.0381 14.934 71.4852 15.3121 71.0902 15.7659C70.6163 16.2953 70.2213 16.8247 69.9844 17.4298C69.6684 18.2617 69.5104 18.9424 69.5104 19.7743Z" fill="#1B4BB7"/>
<path d="M89.4161 15.8418C90.127 15.8418 90.759 15.9931 91.3909 16.2199C92.0228 16.4468 92.5757 16.825 92.8917 17.2031C93.3656 17.6569 93.6816 18.1863 93.9185 18.6401C94.1555 19.2452 94.3135 19.7746 94.3135 20.5309V28.0183H92.0228L91.4699 26.8838C91.1539 27.1107 90.8379 27.3376 90.443 27.5645C90.127 27.7158 89.7321 27.867 89.2582 28.0183C88.7842 28.1696 88.3103 28.2452 87.8363 28.2452C86.4935 28.2452 85.3877 27.9427 84.6768 27.262C83.8869 26.5813 83.5709 25.825 83.5709 24.8418C83.5709 24.2368 83.7289 23.7074 83.9659 23.2536C84.2028 22.7998 84.6768 22.2704 85.1507 21.9679C85.7826 21.5897 86.4935 21.2872 87.4414 21.1359C88.4683 20.909 89.5741 20.8334 91.0749 20.8334C91.0749 20.1527 90.9169 19.699 90.522 19.3208C90.127 18.9427 89.6531 18.7158 89.0212 18.7158C88.6262 18.7158 88.2313 18.7914 87.9943 18.9427C87.7574 19.0939 87.5204 19.2452 87.3624 19.3964C87.2044 19.6233 87.0465 19.8502 87.0465 20.0771H83.8869C83.9659 19.4721 84.1238 18.9427 84.4398 18.5645C84.6768 18.0351 85.0717 17.5813 85.5457 17.2788C86.0196 16.9006 86.5725 16.5981 87.1254 16.3712C87.9943 15.9174 88.7052 15.8418 89.4161 15.8418ZM88.5473 25.7494C89.4161 25.7494 89.9691 25.5225 90.522 25.0687C91.0749 24.6149 91.3119 23.9343 91.3119 23.2536V22.7242C90.364 22.7242 89.6531 22.7998 89.1002 22.8754C88.5473 22.9511 88.0733 23.1023 87.8363 23.2536C87.5204 23.4048 87.2834 23.5561 87.2044 23.783C87.1254 24.0099 87.0465 24.2368 87.0465 24.5393C87.0465 24.9175 87.2044 25.22 87.5204 25.4469C87.7574 25.5981 88.0733 25.7494 88.5473 25.7494Z" fill="#1B4BB7"/>
<path d="M103.24 15.8418C103.398 15.8418 103.556 15.8418 103.635 15.8418C103.714 15.8418 103.872 15.8418 103.951 15.9174C104.03 15.9174 104.109 15.9174 104.266 15.9931V19.1695C104.187 19.1695 104.03 19.1695 103.951 19.0939C103.872 19.0939 103.714 19.0939 103.635 19.0183C103.477 19.0183 103.319 19.0183 103.161 19.0183C102.371 19.0183 101.818 19.2452 101.265 19.7746C100.791 20.304 100.554 20.909 100.554 21.6653V28.0939H97.3944V15.9931H99.6851L100.238 17.2788C100.475 16.9763 100.712 16.7494 101.028 16.5225C101.265 16.2956 101.581 16.1443 101.976 15.9931C102.292 15.9174 102.687 15.8418 103.24 15.8418Z" fill="#1B4BB7"/>
<path d="M111.217 28.0938C110.427 28.0938 109.716 27.9425 109.005 27.64C108.294 27.3375 107.741 26.8837 107.109 26.3543C106.556 25.7492 106.082 25.2198 105.846 24.3879C105.53 23.6316 105.372 22.8753 105.372 21.8921C105.372 20.9089 105.53 20.2282 105.846 19.3963C106.161 18.64 106.635 18.0349 107.109 17.4299C107.662 16.8248 108.294 16.4467 109.005 16.1442C109.795 15.766 110.427 15.6904 111.217 15.6904C111.77 15.6904 112.244 15.766 112.56 15.9173C112.955 16.0685 113.35 16.2198 113.665 16.3711C113.981 16.5223 114.297 16.7492 114.534 16.9761V11.4551H117.694V28.0181H115.403L114.85 26.8837C114.534 27.1106 114.218 27.3375 113.823 27.5644C113.507 27.7156 113.113 27.8669 112.639 28.0181C112.323 28.0181 111.77 28.0938 111.217 28.0938ZM114.85 21.9677C114.85 20.9089 114.534 20.2282 113.902 19.5475C113.271 18.9425 112.56 18.64 111.691 18.64C110.743 18.64 110.111 18.9425 109.479 19.5475C108.847 20.1526 108.531 20.9089 108.531 21.9677C108.531 23.0265 108.847 23.7072 109.479 24.3879C110.111 24.9929 110.822 25.2954 111.691 25.2954C112.639 25.2954 113.271 24.9929 113.902 24.3879C114.534 23.7072 114.85 23.0265 114.85 21.9677Z" fill="#1B4BB7"/>
<path d="M129.622 11.5308H133.256L127.884 19.6989L133.493 28.0938H129.859L126.068 22.119L122.276 28.0938H118.643L124.251 19.6989L118.88 11.5308H122.513L126.147 17.3543L129.622 11.5308Z" fill="#1B4BB7"/>
<path d="M140.365 15.8418C141.076 15.8418 141.708 15.9931 142.34 16.2199C142.972 16.4468 143.525 16.825 143.841 17.2031C144.314 17.6569 144.63 18.1863 144.867 18.6401C145.104 19.2452 145.262 19.7746 145.262 20.5309V28.0183H142.972L142.419 26.8838C142.103 27.1107 141.787 27.3376 141.392 27.5645C141.076 27.7158 140.681 27.867 140.207 28.0183C139.733 28.1696 139.259 28.2452 138.785 28.2452C137.442 28.2452 136.337 27.9427 135.626 27.262C134.836 26.5813 134.52 25.825 134.52 24.8418C134.52 24.2368 134.678 23.7074 134.915 23.2536C135.152 22.7242 135.626 22.2704 136.1 21.9679C136.573 21.6653 137.442 21.2872 138.39 21.1359C139.417 20.909 140.523 20.8334 142.024 20.8334C142.024 20.1527 141.866 19.699 141.471 19.3208C141.076 18.9427 140.602 18.7158 139.97 18.7158C139.575 18.7158 139.18 18.7914 138.943 18.9427C138.706 19.0939 138.469 19.2452 138.311 19.3964C138.153 19.6233 137.995 19.8502 137.995 20.0771H134.836C134.915 19.4721 135.073 18.9427 135.389 18.5645C135.626 18.0351 136.021 17.5813 136.495 17.2788C136.968 16.9006 137.521 16.5981 138.074 16.3712C138.943 15.9931 139.654 15.8418 140.365 15.8418ZM139.496 25.7494C140.365 25.7494 140.918 25.5225 141.471 25.0687C142.024 24.6149 142.261 24.0099 142.261 23.2536V22.7242C141.313 22.7242 140.602 22.7998 140.049 22.8754C139.496 22.9511 139.022 23.1023 138.785 23.2536C138.469 23.4048 138.232 23.5561 138.153 23.783C138.074 24.0099 137.995 24.2368 137.995 24.5393C137.995 24.9175 138.153 25.22 138.469 25.4469C138.548 25.6738 138.943 25.7494 139.496 25.7494Z" fill="#1B4BB7"/>
<path d="M154.661 28.1695C154.108 28.1695 153.555 28.0938 153.239 27.9426C152.765 27.7913 152.37 27.64 152.054 27.4888C151.659 27.2619 151.344 27.035 151.028 26.8081L150.475 27.9426H148.184V11.5308H151.344V17.0518C151.581 16.8249 151.896 16.6736 152.212 16.4467C152.528 16.2955 152.844 16.1442 153.239 15.993C153.634 15.8417 154.108 15.7661 154.582 15.7661C155.372 15.7661 156.083 15.9173 156.794 16.2198C157.505 16.5224 158.058 16.9762 158.69 17.5056C159.321 18.1106 159.716 18.64 159.953 19.472C160.269 20.2283 160.427 20.9846 160.427 21.9678C160.427 22.8753 160.269 23.6316 159.953 24.4636C159.637 25.2955 159.163 25.8249 158.69 26.43C158.137 27.035 157.505 27.4132 156.794 27.7157C156.162 28.0182 155.451 28.1695 154.661 28.1695ZM151.107 22.0434C151.107 23.1022 151.423 23.7829 152.054 24.4636C152.686 25.1442 153.397 25.3711 154.266 25.3711C155.135 25.3711 155.846 25.0686 156.478 24.4636C157.11 23.8585 157.426 23.1022 157.426 22.0434C157.426 20.9846 157.11 20.3039 156.478 19.6232C155.846 19.0182 155.135 18.7157 154.266 18.7157C153.397 18.7157 152.686 19.0182 152.054 19.6232C151.423 20.2283 151.107 20.9846 151.107 22.0434Z" fill="#1B4BB7"/>
<path d="M168.09 15.8418C168.801 15.8418 169.433 15.9931 170.065 16.2199C170.697 16.4468 171.25 16.825 171.566 17.2031C172.04 17.6569 172.356 18.1863 172.592 18.6401C172.829 19.2452 172.987 19.7746 172.987 20.5309V28.0183H170.697L170.144 26.8838C169.828 27.1107 169.512 27.3376 169.117 27.5645C168.801 27.7158 168.406 27.867 167.932 28.0183C167.458 28.1696 166.984 28.2452 166.51 28.2452C165.167 28.2452 164.062 27.9427 163.351 27.262C162.561 26.5813 162.245 25.825 162.245 24.8418C162.245 24.2368 162.403 23.7074 162.64 23.2536C162.877 22.7242 163.351 22.2704 163.825 21.9679C164.299 21.6653 165.167 21.2872 166.115 21.1359C167.142 20.909 168.248 20.8334 169.749 20.8334C169.749 20.1527 169.591 19.699 169.196 19.3208C168.801 18.9427 168.327 18.7158 167.695 18.7158C167.3 18.7158 166.905 18.7914 166.668 18.9427C166.431 19.0939 166.194 19.2452 166.036 19.3964C165.878 19.6233 165.72 19.8502 165.72 20.0771H162.561C162.64 19.4721 162.798 18.9427 163.114 18.5645C163.351 18.0351 163.746 17.5813 164.22 17.2788C164.694 16.9006 165.246 16.5981 165.799 16.3712C166.589 15.9931 167.221 15.8418 168.09 15.8418ZM167.063 25.7494C167.932 25.7494 168.485 25.5225 169.038 25.0687C169.591 24.6149 169.828 24.0099 169.828 23.2536V22.7242C168.88 22.7242 168.169 22.7998 167.616 22.8754C167.063 22.9511 166.589 23.1023 166.352 23.2536C166.036 23.4048 165.799 23.5561 165.72 23.783C165.641 24.0099 165.562 24.2368 165.562 24.5393C165.562 24.9175 165.72 25.22 166.036 25.4469C166.273 25.6738 166.668 25.7494 167.063 25.7494Z" fill="#1B4BB7"/>
<path d="M181.755 15.8418C181.913 15.8418 182.07 15.8418 182.149 15.8418C182.228 15.8418 182.386 15.8418 182.465 15.9174C182.544 15.9931 182.623 15.9174 182.781 15.9931V19.1695C182.702 19.1695 182.623 19.1695 182.465 19.0939C182.386 19.0939 182.228 19.0939 182.149 19.0183C182.07 18.9426 181.834 19.0183 181.676 19.0183C180.886 19.0183 180.333 19.2452 179.78 19.7746C179.306 20.304 179.069 20.909 179.069 21.6653V28.0939H175.83V15.9931H178.121L178.674 17.2788C178.911 16.9763 179.148 16.7494 179.464 16.5225C179.701 16.2956 180.017 16.1443 180.412 15.9931C180.886 15.9174 181.36 15.8418 181.755 15.8418Z" fill="#1B4BB7"/>
</svg>
