<svg width="32" height="32" viewBox="0 0 32 32" fill="none" xmlns="http://www.w3.org/2000/svg">
<path d="M16 4.00016V6.66683H6.66663V18.6668H25.3333V16.0002H28V26.6668H26.6666V28.0002C26.6666 28.3538 26.5262 28.6929 26.2761 28.943C26.0261 29.193 25.6869 29.3335 25.3333 29.3335H24C23.6463 29.3335 23.3072 29.193 23.0571 28.943C22.8071 28.6929 22.6666 28.3538 22.6666 28.0002V26.6668H9.33329V28.0002C9.33329 28.3538 9.19282 28.6929 8.94277 28.943C8.69272 29.193 8.35358 29.3335 7.99996 29.3335H6.66663C6.313 29.3335 5.97387 29.193 5.72382 28.943C5.47377 28.6929 5.33329 28.3538 5.33329 28.0002V26.6668H3.99996V16.0002H2.66663V10.6668H3.99996V6.66683C3.99996 5.95959 4.28091 5.28131 4.78101 4.78121C5.2811 4.28111 5.95938 4.00016 6.66663 4.00016H16ZM12 21.3335H6.66663V24.0002H12V21.3335ZM25.3333 21.3335H20V24.0002H25.3333V21.3335ZM24.6666 1.3335C26.2579 1.3335 27.784 1.96564 28.9093 3.09086C30.0345 4.21607 30.6666 5.7422 30.6666 7.3335C30.6666 8.9248 30.0345 10.4509 28.9093 11.5761C27.784 12.7014 26.2579 13.3335 24.6666 13.3335C23.0753 13.3335 21.5492 12.7014 20.424 11.5761C19.2988 10.4509 18.6666 8.9248 18.6666 7.3335C18.6666 5.7422 19.2988 4.21607 20.424 3.09086C21.5492 1.96564 23.0753 1.3335 24.6666 1.3335ZM24.6666 8.22283C24.012 8.22283 23.4133 8.45883 22.948 8.8495L22.7813 9.00283L24.6666 10.8895L26.5506 9.0015C26.3033 8.75414 26.0095 8.55804 25.6862 8.42442C25.3629 8.2908 25.0164 8.22229 24.6666 8.22283ZM24.6666 4.66683C23.1254 4.66451 21.6385 5.23635 20.496 6.27083L20.2653 6.49083L21.524 7.74683C21.9361 7.33335 22.426 7.00541 22.9653 6.78185C23.5046 6.5583 24.0828 6.44354 24.6666 6.44416C25.7471 6.44253 26.7909 6.83614 27.6013 7.55083L27.8093 7.74683L29.0666 6.4895C28.4895 5.91078 27.8036 5.45183 27.0485 5.13903C26.2934 4.82624 25.484 4.66576 24.6666 4.66683Z" fill="#1B4BB7"/>
</svg>
