<svg width="42" height="36" viewBox="0 0 42 36" fill="none" xmlns="http://www.w3.org/2000/svg">
<path d="M40 6H26C22.8174 6 19.7652 7.26428 17.5147 9.51472C15.2643 11.7652 14 14.8174 14 18C14 21.1826 15.2643 24.2348 17.5147 26.4853C19.7652 28.7357 22.8174 30 26 30H40V34C40 34.5304 39.7893 35.0391 39.4142 35.4142C39.0391 35.7893 38.5304 36 38 36H2C1.46957 36 0.960859 35.7893 0.585786 35.4142C0.210714 35.0391 0 34.5304 0 34V2C0 1.46957 0.210714 0.960859 0.585786 0.585786C0.960859 0.210714 1.46957 0 2 0H38C38.5304 0 39.0391 0.210714 39.4142 0.585786C39.7893 0.960859 40 1.46957 40 2V6ZM26 10H42V26H26C23.8783 26 21.8434 25.1571 20.3431 23.6569C18.8429 22.1566 18 20.1217 18 18C18 15.8783 18.8429 13.8434 20.3431 12.3431C21.8434 10.8429 23.8783 10 26 10ZM26 16V20H32V16H26Z" fill="#19E9AA"/>
</svg>
