<svg width="40" height="40" viewBox="0 0 40 40" fill="none" xmlns="http://www.w3.org/2000/svg">
<path d="M20 18C22.6522 18 25.1957 19.0536 27.0711 20.9289C28.9464 22.8043 30 25.3478 30 28V40H10V28C10 25.3478 11.0536 22.8043 12.9289 20.9289C14.8043 19.0536 17.3478 18 20 18ZM6.576 24.012C6.25772 25.0856 6.0697 26.1935 6.016 27.312L6 28V40H1.82634e-07V31C-0.000393614 29.2751 0.636057 27.6109 1.78727 26.3264C2.93848 25.042 4.5234 24.2278 6.238 24.04L6.578 24.012H6.576ZM33.424 24.012C35.2038 24.1205 36.8752 24.9039 38.0972 26.2025C39.3192 27.501 39.9997 29.2169 40 31V40H34V28C34 26.614 33.8 25.276 33.424 24.012ZM7 12C8.32608 12 9.59785 12.5268 10.5355 13.4645C11.4732 14.4021 12 15.6739 12 17C12 18.3261 11.4732 19.5979 10.5355 20.5355C9.59785 21.4732 8.32608 22 7 22C5.67392 22 4.40215 21.4732 3.46447 20.5355C2.52678 19.5979 2 18.3261 2 17C2 15.6739 2.52678 14.4021 3.46447 13.4645C4.40215 12.5268 5.67392 12 7 12ZM33 12C34.3261 12 35.5979 12.5268 36.5355 13.4645C37.4732 14.4021 38 15.6739 38 17C38 18.3261 37.4732 19.5979 36.5355 20.5355C35.5979 21.4732 34.3261 22 33 22C31.6739 22 30.4021 21.4732 29.4645 20.5355C28.5268 19.5979 28 18.3261 28 17C28 15.6739 28.5268 14.4021 29.4645 13.4645C30.4021 12.5268 31.6739 12 33 12ZM20 0C22.1217 0 24.1566 0.842855 25.6569 2.34315C27.1571 3.84344 28 5.87827 28 8C28 10.1217 27.1571 12.1566 25.6569 13.6569C24.1566 15.1571 22.1217 16 20 16C17.8783 16 15.8434 15.1571 14.3431 13.6569C12.8429 12.1566 12 10.1217 12 8C12 5.87827 12.8429 3.84344 14.3431 2.34315C15.8434 0.842855 17.8783 0 20 0Z" fill="#2798FF"/>
</svg>
