<svg width="58" height="60" viewBox="0 0 58 60" fill="none" xmlns="http://www.w3.org/2000/svg">
<path d="M7.37695 43.4361V38.3437H8.05769V39.1161C8.22787 38.7561 8.3915 38.5139 8.5355 38.4026C8.6795 38.2848 8.84313 38.2324 9.01985 38.2324C9.27513 38.2324 9.53042 38.3241 9.79224 38.5073L9.53042 39.3059C9.34715 39.1815 9.16386 39.1161 8.98058 39.1161C8.81695 39.1161 8.66641 39.175 8.5355 39.2862C8.40459 39.3975 8.31295 39.5546 8.25404 39.7575C8.16895 40.0652 8.12968 40.399 8.12968 40.7655V43.4295H7.37695V43.4361Z" fill="#B3B3B3"/>
<path d="M13.2809 41.7997L14.0598 41.911C13.9355 42.4346 13.7129 42.8339 13.3791 43.1219C13.0453 43.4099 12.6264 43.5539 12.1093 43.5539C11.4613 43.5539 10.9442 43.3248 10.5646 42.8666C10.1849 42.4084 9.99512 41.767 9.99512 40.9357C9.99512 40.0782 10.1849 39.4172 10.5711 38.9393C10.9573 38.4681 11.4547 38.2324 12.07 38.2324C12.6656 38.2324 13.15 38.4615 13.5231 38.9262C13.9027 39.391 14.086 40.0455 14.086 40.8833C14.086 40.9357 14.086 41.0142 14.0795 41.1124H10.7675C10.7937 41.6753 10.9311 42.1008 11.1798 42.3953C11.4286 42.6964 11.7362 42.8404 12.1093 42.8404C12.3842 42.8404 12.6198 42.7553 12.8162 42.5917C13.0126 42.4281 13.1696 42.1597 13.2809 41.7997ZM10.8067 40.399H13.2875C13.2547 39.9735 13.1566 39.6528 13.006 39.4368C12.7638 39.103 12.4562 38.9393 12.07 38.9393C11.7231 38.9393 11.4351 39.0702 11.1995 39.3386C10.9638 39.6004 10.8329 39.9604 10.8067 40.399Z" fill="#B3B3B3"/>
<path d="M19.4796 40.9748L20.2912 41.2105C20.121 41.9763 19.8134 42.5588 19.3748 42.9581C18.9298 43.3574 18.393 43.5603 17.7516 43.5603C17.0905 43.5603 16.5538 43.4032 16.1414 43.0956C15.729 42.7879 15.4149 42.3428 15.1989 41.7537C14.9829 41.1712 14.8716 40.5428 14.8716 39.8686C14.8716 39.1356 14.9959 38.5006 15.2381 37.9508C15.4803 37.4076 15.8272 36.9952 16.2789 36.7072C16.7305 36.4257 17.2279 36.2817 17.7647 36.2817C18.3799 36.2817 18.897 36.4585 19.3159 36.8185C19.7348 37.1785 20.0228 37.6825 20.193 38.3305L19.3945 38.5465C19.2505 38.0359 19.0476 37.6628 18.7727 37.4272C18.5043 37.1916 18.164 37.0737 17.7516 37.0737C17.2803 37.0737 16.8876 37.2046 16.5669 37.4599C16.2527 37.7217 16.0301 38.0687 15.8992 38.5007C15.7683 38.9392 15.7094 39.3843 15.7094 39.849C15.7094 40.4446 15.7879 40.9683 15.9385 41.4134C16.089 41.8585 16.3247 42.1923 16.6454 42.4148C16.9661 42.6374 17.313 42.7421 17.6861 42.7421C18.1378 42.7421 18.5239 42.5916 18.8381 42.2905C19.1523 42.009 19.3683 41.5639 19.4796 40.9748Z" fill="#B3B3B3"/>
<path d="M20.6182 43.4361L22.9745 36.4062H23.8516L26.3651 43.4361H25.4422L24.7287 41.3088H22.1629L21.4887 43.4361H20.6182ZM22.3854 40.5495H24.4669L23.8254 38.6055C23.6291 38.0164 23.4851 37.5255 23.3869 37.1459C23.3083 37.5975 23.1971 38.0426 23.0596 38.4877L22.3854 40.5495Z" fill="#B3B3B3"/>
<path d="M27.0068 43.4361V36.4062H29.3239C29.7297 36.4062 30.0439 36.4259 30.2599 36.4717C30.561 36.5306 30.8163 36.6353 31.0192 36.799C31.2221 36.9626 31.3857 37.1852 31.5101 37.4797C31.6345 37.7677 31.6934 38.0884 31.6934 38.4353C31.6934 39.031 31.5297 39.5415 31.1959 39.9539C30.8621 40.3663 30.2665 40.5757 29.3959 40.5757H27.825V43.4361H27.0068ZM27.8185 39.751H29.4025C29.9261 39.751 30.2992 39.6397 30.5217 39.4172C30.7443 39.1946 30.849 38.8804 30.849 38.4746C30.849 38.1801 30.7835 37.9313 30.6526 37.7219C30.5217 37.5124 30.3516 37.375 30.1421 37.3095C30.0046 37.2702 29.7559 37.2441 29.3828 37.2441H27.8119V39.751H27.8185Z" fill="#B3B3B3"/>
<path d="M34.2852 43.4361V37.2375H32.2627V36.4062H37.1259V37.2375H35.0969V43.4361H34.2852Z" fill="#B3B3B3"/>
<path d="M42.3297 40.9748L43.1413 41.2105C42.9711 41.9763 42.6635 42.5588 42.2249 42.9581C41.7799 43.3574 41.2431 43.5603 40.6017 43.5603C39.9406 43.5603 39.4039 43.4032 38.9915 43.0956C38.5791 42.7879 38.265 42.3428 38.049 41.7537C37.833 41.1712 37.7217 40.5428 37.7217 39.8686C37.7217 39.1356 37.846 38.5006 38.0882 37.9508C38.3304 37.4076 38.6773 36.9952 39.1289 36.7072C39.5806 36.4257 40.078 36.2817 40.6148 36.2817C41.23 36.2817 41.7471 36.4585 42.166 36.8185C42.5849 37.1785 42.8729 37.6825 43.0431 38.3305L42.2446 38.5465C42.1006 38.0359 41.8977 37.6628 41.6228 37.4272C41.3544 37.1916 41.014 37.0737 40.6017 37.0737C40.1304 37.0737 39.7377 37.2046 39.4169 37.4599C39.1028 37.7217 38.8802 38.0687 38.7493 38.5007C38.6184 38.9392 38.5595 39.3843 38.5595 39.849C38.5595 40.4446 38.638 40.9683 38.7886 41.4134C38.9391 41.8585 39.1748 42.1923 39.4955 42.4148C39.8162 42.6374 40.1631 42.7421 40.5362 42.7421C40.9879 42.7421 41.374 42.5916 41.6882 42.2905C42.0089 42.009 42.2184 41.5639 42.3297 40.9748Z" fill="#B3B3B3"/>
<path d="M44.1689 43.4361V36.4062H44.9806V39.2928H48.1682V36.4062H48.9799V43.4361H48.1682V40.1241H44.9806V43.4361H44.1689Z" fill="#B3B3B3"/>
<path d="M49.6606 43.4361L52.017 36.4062H52.8941L55.4075 43.4361H54.4846L53.7712 41.3088H51.2054L50.5312 43.4361H49.6606ZM51.4279 40.5495H53.5093L52.8679 38.6055C52.6715 38.0164 52.5275 37.5255 52.4293 37.1459C52.3508 37.5975 52.2395 38.0426 52.1021 38.4877L51.4279 40.5495Z" fill="#B3B3B3"/>
<path d="M0 57.3519V51.2646H2.29747C2.70329 51.2646 3.01094 51.2843 3.22694 51.3236C3.52803 51.3759 3.77676 51.4676 3.97967 51.6116C4.18258 51.749 4.34622 51.9454 4.47058 52.2006C4.59495 52.4494 4.65385 52.7308 4.65385 53.0319C4.65385 53.549 4.49022 53.9876 4.16294 54.3476C3.83567 54.7076 3.24002 54.8843 2.37602 54.8843H0.811654V57.3585H0V57.3519ZM0.805103 54.1577H2.38257C2.90621 54.1577 3.27276 54.0596 3.49531 53.8697C3.71131 53.6734 3.82258 53.405 3.82258 53.0516C3.82258 52.7963 3.75712 52.5803 3.63276 52.397C3.50185 52.2137 3.33167 52.0959 3.12221 52.037C2.98476 52.0043 2.73603 51.9846 2.36948 51.9846H0.811654V54.1577H0.805103Z" fill="#B3B3B3"/>
<path d="M5.57031 57.3513V52.9397H6.24449V53.6073C6.41467 53.2931 6.57177 53.0902 6.72231 52.9855C6.86631 52.8873 7.02994 52.835 7.20012 52.835C7.45539 52.835 7.71067 52.9135 7.96594 53.0771L7.71066 53.7775C7.52739 53.6662 7.34412 53.6139 7.16085 53.6139C6.99721 53.6139 6.85322 53.6662 6.72231 53.7644C6.59141 53.8626 6.49976 54.0001 6.4474 54.1702C6.36231 54.4386 6.32303 54.7266 6.32303 55.0408V57.3513H5.57031Z" fill="#B3B3B3"/>
<path d="M8.41748 52.1216V51.2642H9.16364V52.1216H8.41748ZM8.41748 57.3514V52.9398H9.16364V57.3514H8.41748Z" fill="#B3B3B3"/>
<path d="M11.5267 57.3511L9.85107 52.9395H10.6431L11.5922 55.5838C11.6969 55.8718 11.7885 56.1664 11.8736 56.474C11.9391 56.2384 12.0307 55.9634 12.1551 55.6362L13.1369 52.946H13.9027L12.2336 57.3576H11.5267V57.3511Z" fill="#B3B3B3"/>
<path d="M17.437 56.8081C17.1621 57.0437 16.8938 57.2073 16.6385 57.3055C16.3832 57.4037 16.1083 57.4495 15.8138 57.4495C15.3294 57.4495 14.9563 57.3317 14.6945 57.0961C14.4327 56.8604 14.3018 56.5593 14.3018 56.1862C14.3018 55.9702 14.3541 55.7739 14.4523 55.5971C14.5505 55.4204 14.6814 55.2764 14.8385 55.1651C14.9956 55.0539 15.1789 54.9753 15.3752 54.9164C15.5192 54.8771 15.7418 54.8379 16.0429 54.8051C16.645 54.7331 17.0901 54.6481 17.3781 54.5499C17.3781 54.4451 17.3847 54.3797 17.3847 54.3535C17.3847 54.0524 17.3127 53.8364 17.1752 53.7121C16.9854 53.5419 16.6974 53.4568 16.3243 53.4568C15.9709 53.4568 15.7156 53.5157 15.5454 53.6401C15.3752 53.7644 15.2509 53.9804 15.1723 54.2946L14.4392 54.1964C14.5047 53.8822 14.616 53.6335 14.7665 53.4371C14.917 53.2473 15.1396 53.0968 15.4276 52.9921C15.7156 52.8873 16.0494 52.835 16.429 52.835C16.8087 52.835 17.1098 52.8808 17.3454 52.9659C17.581 53.051 17.7512 53.1622 17.8625 53.2997C17.9738 53.4371 18.0523 53.6008 18.0981 53.8102C18.1243 53.9346 18.1374 54.1702 18.1374 54.4975V55.4924C18.1374 56.1862 18.1505 56.6248 18.1832 56.8146C18.2159 56.9979 18.2814 57.1746 18.373 57.3448H17.5941C17.509 57.2008 17.4567 57.0175 17.437 56.8081ZM17.3716 55.139C17.1032 55.2502 16.6909 55.3419 16.1476 55.4204C15.84 55.4662 15.6239 55.5121 15.493 55.571C15.3687 55.6233 15.2705 55.7084 15.1985 55.8131C15.1265 55.9179 15.0938 56.0357 15.0938 56.1666C15.0938 56.363 15.1723 56.5331 15.3229 56.6641C15.4734 56.795 15.6959 56.8604 15.984 56.8604C16.272 56.8604 16.5272 56.795 16.7498 56.6706C16.9723 56.5462 17.136 56.3695 17.2472 56.1535C17.3258 55.9833 17.365 55.7346 17.365 55.4073V55.139H17.3716Z" fill="#B3B3B3"/>
<path d="M22.1696 55.741L22.9027 55.8392C22.8242 56.3432 22.6147 56.7425 22.2875 57.0305C21.9536 57.3185 21.5478 57.4625 21.07 57.4625C20.4678 57.4625 19.9769 57.2661 19.6104 56.8734C19.2438 56.4807 19.0605 55.9112 19.0605 55.1781C19.0605 54.7003 19.1391 54.288 19.2962 53.928C19.4533 53.5745 19.6955 53.2996 20.0162 53.1229C20.3369 52.9461 20.6904 52.8545 21.07 52.8545C21.5478 52.8545 21.9406 52.9723 22.2482 53.2145C22.5493 53.4567 22.7456 53.8036 22.8307 54.2487L22.1042 54.3599C22.0322 54.0654 21.9144 53.8429 21.7376 53.6923C21.5609 53.5418 21.3515 53.4698 21.1027 53.4698C20.7231 53.4698 20.422 53.6072 20.1864 53.8756C19.9507 54.1439 19.8329 54.5694 19.8329 55.1585C19.8329 55.7541 19.9442 56.1796 20.1733 56.4479C20.4024 56.7163 20.6969 56.8538 21.0635 56.8538C21.358 56.8538 21.6002 56.7621 21.7966 56.5854C21.9929 56.389 22.1173 56.1141 22.1696 55.741Z" fill="#B3B3B3"/>
<path d="M23.5111 59.0531L23.426 58.3527C23.5896 58.3986 23.7336 58.4182 23.8514 58.4182C24.0151 58.4182 24.1525 58.392 24.2507 58.3331C24.3489 58.2807 24.434 58.2022 24.4929 58.0975C24.5387 58.0255 24.6173 57.8357 24.722 57.5411C24.7351 57.5018 24.7547 57.4364 24.7874 57.3578L23.1118 52.9397H23.9169L24.8333 55.4924C24.9511 55.8197 25.0558 56.16 25.154 56.5135C25.2391 56.1666 25.3438 55.8327 25.4616 55.5055L26.4042 52.9331H27.1503L25.4747 57.4233C25.2914 57.9077 25.154 58.2415 25.0558 58.4247C24.9249 58.6735 24.7678 58.8502 24.5976 58.968C24.4274 59.0858 24.218 59.1382 23.9824 59.1382C23.8514 59.1447 23.6878 59.112 23.5111 59.0531Z" fill="#B3B3B3"/>
<path d="M29.8735 55.5247V54.772H32.1711V55.5247H29.8735Z" fill="#B3B3B3"/>
<path d="M36.8508 57.3511V51.9773H34.8413V51.2573H39.6718V51.9773H37.6558V57.3511H36.8508Z" fill="#B3B3B3"/>
<path d="M42.4802 55.9306L43.2526 56.0287C43.1282 56.4804 42.9057 56.8338 42.5719 57.0826C42.2446 57.3313 41.8191 57.4557 41.3086 57.4557C40.6606 57.4557 40.1501 57.2593 39.777 56.86C39.3973 56.4607 39.2075 55.9044 39.2075 55.1909C39.2075 54.4513 39.3973 53.8753 39.7835 53.4629C40.1631 53.0506 40.6606 52.8477 41.2693 52.8477C41.8584 52.8477 42.3428 53.0506 42.7159 53.4498C43.089 53.8491 43.2788 54.4186 43.2788 55.1451C43.2788 55.1909 43.2788 55.2564 43.2722 55.3415H39.9799C40.0061 55.8258 40.1435 56.1989 40.3922 56.4542C40.641 56.7095 40.9486 56.8404 41.3151 56.8404C41.5901 56.8404 41.8257 56.7684 42.0155 56.6244C42.2119 56.4804 42.369 56.2513 42.4802 55.9306ZM40.0257 54.7262H42.4933C42.4606 54.3531 42.369 54.0782 42.2119 53.8884C41.9762 53.6004 41.662 53.4564 41.2824 53.4564C40.942 53.4564 40.6475 53.5742 40.4184 53.8033C40.1893 54.0324 40.0519 54.34 40.0257 54.7262Z" fill="#B3B3B3"/>
<path d="M44.1816 57.3513V52.9397H44.8558V53.6073C45.026 53.2931 45.1831 53.0902 45.3336 52.9855C45.4776 52.8873 45.6413 52.835 45.8115 52.835C46.0667 52.835 46.322 52.9135 46.5773 53.0771L46.322 53.7775C46.1387 53.6662 45.9555 53.6139 45.7722 53.6139C45.6086 53.6139 45.4646 53.6662 45.3336 53.7644C45.2027 53.8626 45.1111 54.0001 45.0587 54.1702C44.9737 54.4386 44.9344 54.7266 44.9344 55.0408V57.3513H44.1816Z" fill="#B3B3B3"/>
<path d="M47.0293 57.3511V52.9395H47.6969V53.5613C47.8344 53.3453 48.0177 53.1686 48.2468 53.0377C48.4759 52.9068 48.7377 52.8413 49.0322 52.8413C49.3595 52.8413 49.6279 52.9068 49.8373 53.0442C50.0468 53.1817 50.1908 53.3715 50.2824 53.6137C50.6293 53.0966 51.0875 52.8413 51.6439 52.8413C52.0824 52.8413 52.4162 52.9591 52.6518 53.2013C52.8875 53.4435 53.0053 53.8166 53.0053 54.3206V57.3511H52.2591V54.5693C52.2591 54.2682 52.2329 54.0522 52.1871 53.9213C52.1413 53.7904 52.0497 53.6857 51.9253 53.6006C51.8009 53.522 51.6504 53.4828 51.4737 53.4828C51.166 53.4828 50.9042 53.5875 50.7013 53.7904C50.4984 53.9933 50.3937 54.3271 50.3937 54.7788V57.3446H49.6475V54.4777C49.6475 54.1439 49.5886 53.8951 49.4642 53.7315C49.3398 53.5679 49.1435 53.4828 48.8686 53.4828C48.6591 53.4828 48.4628 53.5351 48.286 53.6464C48.1093 53.7577 47.9784 53.9213 47.8999 54.1308C47.8213 54.3468 47.782 54.6479 47.782 55.0537V57.3446H47.0293V57.3511Z" fill="#B3B3B3"/>
<path d="M53.8169 56.0355L54.5565 55.9177C54.5958 56.2122 54.7136 56.4413 54.9034 56.5984C55.0933 56.7555 55.3616 56.834 55.702 56.834C56.0424 56.834 56.2976 56.762 56.4678 56.6246C56.6315 56.4871 56.7166 56.3235 56.7166 56.1337C56.7166 55.9635 56.6446 55.8326 56.494 55.7344C56.3893 55.6689 56.134 55.5839 55.7282 55.4791C55.1784 55.3417 54.7987 55.2239 54.5893 55.1191C54.3798 55.0144 54.2162 54.8769 54.1049 54.7002C53.9936 54.5235 53.9413 54.3271 53.9413 54.1111C53.9413 53.9148 53.9871 53.7315 54.0787 53.5679C54.1704 53.3977 54.2882 53.2602 54.4453 53.1489C54.5631 53.0639 54.7202 52.9919 54.9231 52.9329C55.126 52.874 55.342 52.8413 55.5711 52.8413C55.918 52.8413 56.2191 52.8937 56.4809 52.9919C56.7427 53.09 56.9326 53.2275 57.0635 53.3977C57.1878 53.5679 57.2729 53.7969 57.3187 54.0784L56.5856 54.1766C56.5529 53.9475 56.4547 53.7708 56.2976 53.6464C56.1405 53.522 55.9115 53.4566 55.6235 53.4566C55.2831 53.4566 55.0344 53.5155 54.8904 53.6268C54.7464 53.738 54.6678 53.8755 54.6678 54.026C54.6678 54.1242 54.7005 54.2093 54.7594 54.2879C54.8184 54.3664 54.9165 54.4319 55.0474 54.4842C55.1194 54.5104 55.342 54.5759 55.7085 54.674C56.2387 54.818 56.6053 54.9293 56.8147 55.0209C57.0242 55.1126 57.1878 55.2435 57.3056 55.4137C57.4235 55.5839 57.4824 55.7999 57.4824 56.0551C57.4824 56.3039 57.4104 56.5395 57.2664 56.762C57.1224 56.9846 56.9129 57.1548 56.638 57.2726C56.3631 57.3904 56.0555 57.4559 55.7085 57.4559C55.1325 57.4559 54.7005 57.338 54.3995 57.1024C54.0918 56.8602 53.902 56.5068 53.8169 56.0355Z" fill="#B3B3B3"/>
<path d="M39.9669 11.8473C39.5545 10.7935 38.9393 9.85091 38.1276 9.04582C35.9087 6.82691 32.6753 6.07418 29.7036 7.08218L27.6025 0.883639C32.9567 -0.929452 38.7625 0.418912 42.7553 4.41818C44.2084 5.87128 45.3211 7.56655 46.0607 9.46473L39.9669 11.8473Z" fill="#1C3AA9"/>
<path d="M18.3732 19.4925C16.5993 14.1645 17.9674 8.39143 21.9339 4.41833C23.5506 2.80161 25.4554 1.61688 27.6088 0.883789L29.7099 7.08233C28.5187 7.48815 27.4583 8.14924 26.5616 9.04597C24.3557 11.2518 23.5965 14.4591 24.5848 17.4242L18.3732 19.4925Z" fill="#4388F2"/>
<path d="M32.3481 29.5596C28.4143 29.5596 24.7161 28.028 21.9343 25.2461C20.2979 23.6098 19.1001 21.6723 18.3735 19.4927L24.5852 17.4243C24.9845 18.6352 25.6521 19.7087 26.5619 20.6185C28.1066 22.1632 30.1619 23.0141 32.3481 23.0141C34.5343 23.0141 36.5896 22.1632 38.1343 20.6185C38.527 20.2258 38.8805 19.7938 39.1881 19.3356L44.6535 22.9421C44.1103 23.7669 43.4754 24.5458 42.7685 25.2527C39.9801 28.028 36.2819 29.5596 32.3481 29.5596Z" fill="#B3B3B3"/>
<path d="M47.1212 13.8961L46.8921 2.11426L35.3394 13.667L47.1212 13.8961Z" fill="#1C3AA9"/>
<path d="M17.5161 15.7095L17.7387 27.4913L29.2979 15.932L17.5161 15.7095Z" fill="#B3B3B3"/>
<path d="M31.4117 0L19.6299 0.222546L31.1826 11.7818L31.4117 0Z" fill="#4388F2"/>
</svg>
