<svg width="20" height="20" viewBox="0 0 20 20" fill="none" xmlns="http://www.w3.org/2000/svg">
<path d="M4.056 6.3C4.11975 6.19831 4.18611 6.09828 4.255 6H15.745C15.814 6.098 15.88 6.199 15.944 6.3L17.964 5.134L18.964 6.866L16.751 8.144C16.913 8.734 17 9.357 17 10V11H20V13H17C17 13.953 16.81 14.862 16.464 15.69L18.964 17.134L17.964 18.866L15.438 17.408C14.3292 18.7775 12.7442 19.6779 11 19.929V12H9V19.93C7.2557 19.6787 5.67064 18.7779 4.562 17.408L2.036 18.866L1.036 17.134L3.536 15.691C3.18102 14.8383 2.99884 13.9236 3 13H0V11H3V10C3 9.357 3.087 8.735 3.249 8.144L1.036 6.866L2.036 5.134L4.056 6.3ZM6 4C6 2.93913 6.42143 1.92172 7.17157 1.17157C7.92172 0.421427 8.93913 0 10 0C11.0609 0 12.0783 0.421427 12.8284 1.17157C13.5786 1.92172 14 2.93913 14 4H6Z" fill="#165BE4"/>
</svg>
