<svg width="38" height="38" viewBox="0 0 38 38" fill="none" xmlns="http://www.w3.org/2000/svg">
<path d="M36.2685 13.251H17.6312V16.0435H15.0029V13.2432C10.8963 13.7271 7.35708 16.614 6.02687 20.4963C5.43634 20.159 4.76696 19.9654 4.03828 19.9654C1.80428 19.9654 0 21.7764 0 24.0104C0 26.2444 1.81447 28.0554 4.04847 28.0554C4.77714 28.0554 5.46196 27.8616 6.0525 27.5245C7.51281 31.7867 11.5522 34.8519 16.3093 34.8519C22.2708 34.8519 27.1071 30.0399 27.1493 24.0884L36.6282 21.7726C37.5064 21.5599 38 21.0536 38 19.8216V14.7294C38 13.826 37.1719 13.251 36.2685 13.251Z" fill="#FF7B43"/>
<path d="M16.3172 8.56917C17.0429 8.56917 17.6313 7.98077 17.6313 7.25505V4.46255C17.6313 3.73683 17.0429 3.14844 16.3172 3.14844C15.5914 3.14844 15.0031 3.73683 15.0031 4.46255V7.25505C15.0031 7.98077 15.5914 8.56917 16.3172 8.56917Z" fill="#FF7B43"/>
<path d="M10.619 10.1326C10.8758 10.3892 11.2118 10.5174 11.5483 10.5174C11.8847 10.5174 12.2209 10.3892 12.4775 10.1326C12.9907 9.61925 12.9907 8.78725 12.4775 8.27392L10.5029 6.2993C9.98956 5.7863 9.15772 5.7863 8.64439 6.2993C8.13123 6.81263 8.13123 7.64463 8.64439 8.15795L10.619 10.1326Z" fill="#FF7B43"/>
<path d="M21.0725 10.5176C21.4089 10.5176 21.7453 10.3893 22.0018 10.1326L23.9762 8.15796C24.4894 7.64479 24.4894 6.81263 23.976 6.29946C23.4627 5.78614 22.6306 5.7863 22.1176 6.29963L20.1433 8.27426C19.6301 8.78742 19.6301 9.61942 20.1434 10.1326C20.4 10.3895 20.7361 10.5176 21.0725 10.5176Z" fill="#FF7B43"/>
</svg>
