<svg width="29" height="30" viewBox="0 0 29 30" fill="none" xmlns="http://www.w3.org/2000/svg">
<path d="M28.2972 5.10252C28.2707 3.36483 27.7399 1.62715 26.2536 0.649707C24.7939 -0.300588 22.8565 -0.273438 21.7153 1.16558C21.6356 1.27418 21.4233 1.4914 21.4764 1.6543C21.5295 1.81721 21.901 1.79006 22.0337 1.87151C22.2991 2.00727 22.4053 2.27878 22.3788 2.5503C22.3788 2.87611 22.3788 6.05281 22.3522 10.397C18.6101 10.3699 14.8414 10.3427 11.0992 10.3156C11.0196 9.36526 10.993 8.30637 11.0727 7.13886C11.1257 6.07996 11.2585 4.99391 11.4708 3.93501C11.5504 3.47344 11.6566 3.01187 11.7893 2.5503C11.922 2.06157 12.267 1.43709 12.2404 0.92122C12.2404 0.839766 12.2139 0.78546 12.1874 0.731157C12.0812 0.595401 11.8954 0.622553 11.7362 0.676856C10.7807 0.921217 9.85182 1.43709 9.1087 2.11587C8.89638 2.33308 8.28596 2.90326 7.72862 3.90786C6.29545 6.54153 6.16275 10.2884 6.16275 10.2884C6.08313 12.7049 6.00351 17.6193 8.52482 22.7237C8.52482 22.7237 10.303 26.3077 12.8243 27.1765C13.3286 27.3394 13.4613 27.2308 13.5144 27.1765C13.7001 26.905 13.2755 26.4706 13.1693 26.2805C12.9305 25.9275 12.7447 25.5203 12.5855 25.1402C12.2404 24.3256 12.0016 23.4568 11.8423 22.5608C11.3115 19.9 10.9665 17.1848 11.0461 14.4697H22.4053C22.4053 17.8908 22.4053 21.3118 22.4053 24.7329C22.4053 25.4117 22.6707 26.0633 23.2811 26.3891C23.6527 26.5792 24.0773 26.6606 24.4754 26.7149C25.192 26.7964 25.9351 26.8507 26.6517 26.7149C27.0764 26.6335 27.4745 26.4706 27.7929 26.1719C28.2972 25.6832 28.2972 25.0587 28.2972 24.4071C28.2972 19.2483 28.3503 14.1167 28.3503 8.958C28.3237 7.65473 28.3237 6.37863 28.2972 5.10252Z" fill="#FF9E0E"/>
<path d="M12.7441 28.4793C8.15263 27.0945 6.37445 22.153 5.39247 17.836C5.18015 16.8857 4.96783 15.9625 4.86167 15.0122C4.4901 12.1071 4.51664 8.93037 5.41901 6.13379C4.72896 6.2967 4.41048 6.92117 3.98584 7.4099C2.4996 9.22903 2.3669 11.374 2.31382 13.4918C2.15458 18.4604 3.90622 21.9901 4.30432 22.7503C5.20669 24.4609 6.16213 25.5741 6.45407 25.8999C7.46259 27.0674 8.49765 27.8548 9.29386 28.3978C8.68343 28.2349 7.78107 27.9362 6.85217 27.3389C5.97635 26.7959 5.36593 26.1714 4.94129 25.7098C4.3574 24.9496 3.93276 24.2437 3.66736 23.7821C2.95078 22.4788 2.02188 20.8769 1.5707 18.732C1.438 18.1346 1.35838 17.5102 1.11952 17.483C0.774494 17.4559 0.402933 18.6777 0.323313 18.9492C0.0579121 19.818 -0.0217094 20.6054 0.00483072 21.0127C0.0313708 22.6417 1.22567 25.8184 4.06546 27.9634C4.06546 27.9634 6.56023 29.8368 10.8332 29.9997C11.019 29.9997 12.054 29.9726 12.7971 29.4295C13.1422 29.1037 13.4076 28.6965 12.7441 28.4793Z" fill="#FF9E0E"/>
<path d="M5.42078 6.10671V6.13394L5.47404 6.05225L5.42078 6.10671Z" fill="#FF9E0E"/>
</svg>
