<svg width="24" height="24" viewBox="0 0 24 24" fill="none" xmlns="http://www.w3.org/2000/svg">
<path d="M12 0C18.6168 0 24 5.38317 24 12C24 18.6168 18.6168 24 12 24C5.38317 24 0 18.6168 0 12C0 5.38317 5.38317 0 12 0ZM22.4729 12.75H18.5307C18.4852 14.0975 18.3173 15.4035 18.0371 16.6219H21.4263C22.0088 15.4388 22.375 14.1309 22.4729 12.75ZM11.25 5.87808V1.78172C10.2728 2.10952 9.32583 3.06272 8.57128 4.50778C8.34797 4.93547 8.14631 5.39395 7.96706 5.87808H11.25ZM7.50445 7.37808C7.20117 8.57948 7.01888 9.8887 6.96984 11.25H11.25V7.37808H7.50445ZM12.75 1.78172V5.87808H16.033C15.8537 5.39395 15.6521 4.93542 15.4288 4.50778C14.6742 3.06272 13.7272 2.10952 12.75 1.78172ZM12.75 7.37808V11.25H17.0302C16.9811 9.8887 16.7988 8.57948 16.4955 7.37808H12.75ZM18.5308 11.25H22.473C22.375 9.86906 22.0088 8.56125 21.4263 7.37808H18.0372C18.3174 8.59645 18.4852 9.90253 18.5308 11.25ZM17.0302 12.75H12.75V16.6219H16.4955C16.7988 15.4205 16.9811 14.1113 17.0302 12.75ZM12.75 18.1219V22.2183C13.7272 21.8905 14.6742 20.9373 15.4288 19.4922C15.6521 19.0645 15.8537 18.606 16.033 18.1219H12.75ZM11.25 22.2183V18.1219H7.96706C8.14631 18.606 8.34797 19.0645 8.57128 19.4922C9.32583 20.9373 10.2728 21.8905 11.25 22.2183ZM11.25 16.6219V12.75H6.96989C7.01892 14.1113 7.20122 15.4205 7.5045 16.6219H11.25ZM5.46928 12.75H1.52705C1.62497 14.1309 1.9912 15.4388 2.57367 16.6219H5.96288C5.68266 15.4035 5.51484 14.0975 5.46928 12.75ZM5.46928 11.25C5.51484 9.90253 5.68266 8.59645 5.96288 7.37808H2.57367C1.9912 8.56125 1.62497 9.86906 1.52705 11.25H5.46928ZM3.47451 5.87808H6.3795C6.62231 5.14031 6.91045 4.44769 7.24162 3.81347C7.56717 3.19008 7.92492 2.64145 8.30864 2.1705C6.35447 2.90677 4.67602 4.20961 3.47451 5.87808ZM15.6914 2.1705C16.0751 2.6415 16.4329 3.19008 16.7584 3.81347C17.0896 4.44773 17.3777 5.14036 17.6205 5.87808H20.5255C19.324 4.20961 17.6455 2.90677 15.6914 2.1705ZM20.5254 18.1219H17.6205C17.3777 18.8597 17.0896 19.5523 16.7584 20.1865C16.4328 20.81 16.0751 21.3585 15.6914 21.8295C17.6455 21.0932 19.3239 19.7904 20.5254 18.1219ZM8.30864 21.8295C7.92492 21.3585 7.56717 20.8099 7.24162 20.1865C6.91045 19.5523 6.62231 18.8596 6.3795 18.1219H3.47451C4.67602 19.7904 6.35452 21.0932 8.30864 21.8295Z" fill="#165BE4"/>
</svg>
