<svg width="80" height="62" viewBox="0 0 80 62" fill="none" xmlns="http://www.w3.org/2000/svg">
<path fill-rule="evenodd" clip-rule="evenodd" d="M11.8699 22.5407C14.8509 25.0571 19.0785 27.6271 23.794 28.4302C32.6829 30.0364 30.0271 20.881 29.4309 18.311L11.8699 22.5407Z" fill="#165BE4"/>
<path fill-rule="evenodd" clip-rule="evenodd" d="M12.2493 1.981C17.8861 5.1399 21.5718 7.1209 25.9078 11.4041C29.1056 14.6166 34.0379 21.8446 30.3522 27.734C38.2655 25.2712 52.0325 14.1883 57.6151 8.67358C59.2953 7.01382 63.252 2.62349 64.336 0C44.7154 9.3696 30.5691 6.21071 12.2493 1.981Z" fill="#165BE4"/>
<path fill-rule="evenodd" clip-rule="evenodd" d="M34.5257 12.4221C35.3929 15.2597 36.3144 17.2407 35.5013 20.7744C34.7425 24.201 33.2791 25.9143 30.3523 27.6276C39.4038 25.1647 61.2466 7.28218 64.2276 0.0541992C59.6206 6.47907 41.7886 11.0836 34.5257 12.4221Z" fill="#296FF2"/>
<path fill-rule="evenodd" clip-rule="evenodd" d="M58.916 33.7305H21.1382C20.813 34.373 20.4878 34.9619 20.271 35.3367C19.3495 36.9429 20.1084 38.1743 22.0054 38.1743C27.1544 38.1208 32.3035 38.1743 37.4525 38.1743C42.6016 38.1743 47.6964 38.1743 52.8455 38.2279C54.7425 38.2279 57.0189 36.9964 57.9945 35.3902C58.2655 34.8013 58.5908 34.2659 58.916 33.7305Z" fill="#1B4BB7"/>
<path fill-rule="evenodd" clip-rule="evenodd" d="M31.9783 30.1969H61.0298C61.5176 29.3938 61.9512 28.5907 62.439 27.7876C63.9566 25.2712 65.4742 22.7548 66.9918 20.2384C67.9132 18.6321 67.2086 17.3472 65.3116 17.3472C61.084 17.3472 56.8021 17.3472 52.5745 17.3472C48.5094 21.2556 39.7832 27.8947 31.9783 30.1969Z" fill="#1B4BB7"/>
<path d="M2.27642 56.0034C2.27642 56.5923 2.38482 57.0742 2.54743 57.5561C2.76423 58.0379 2.98103 58.4127 3.30623 58.734C3.63144 59.1087 4.01084 59.3764 4.39024 59.5371C4.82385 59.7512 5.25745 59.8048 5.74526 59.8048C6.17886 59.8048 6.55827 59.7512 6.82927 59.6441C7.15447 59.5371 7.47968 59.3764 7.69648 59.1623C7.96748 58.9481 8.18428 58.734 8.34688 58.4663C8.50949 58.1985 8.67209 57.9844 8.78049 57.7167H11.1653C11.0027 58.3056 10.7859 58.7875 10.4607 59.3229C10.1355 59.8583 9.7561 60.2331 9.32249 60.6614C8.83469 61.0362 8.34688 61.3574 7.75068 61.5716C7.15447 61.7858 6.50407 61.9464 5.79946 61.9464C4.98645 61.9464 4.28184 61.7858 3.57724 61.4645C2.87263 61.1433 2.27642 60.715 1.73442 60.2331C1.19241 59.6977 0.813008 59.1087 0.487805 58.3592C0.162602 57.6096 0 56.86 0 56.0034C0 55.2003 0.162602 54.3972 0.487805 53.6476C0.813008 52.898 1.24661 52.3091 1.73442 51.7201C2.27642 51.1847 2.81843 50.8099 3.57724 50.4887C4.28184 50.1675 4.98645 50.0068 5.79946 50.0068C6.50407 50.0068 7.10027 50.1139 7.69648 50.3816C8.29268 50.6493 8.78049 50.917 9.26829 51.2918C9.7561 51.7201 10.0813 52.0949 10.4065 52.6303C10.7317 53.1657 10.9485 53.6476 11.1111 54.2365H8.72629C8.67209 53.9688 8.50949 53.7011 8.34688 53.4334C8.18428 53.1657 7.96748 52.9516 7.69648 52.7374C7.42548 52.5232 7.15447 52.3626 6.88347 52.2555C6.55827 52.1485 6.17886 52.0949 5.79946 52.0949C5.31165 52.0949 4.87805 52.202 4.44444 52.3626C4.01084 52.5768 3.63144 52.8445 3.36043 53.1657C3.03523 53.5405 2.76423 53.9153 2.60163 54.3436C2.38482 54.9326 2.27642 55.4144 2.27642 56.0034Z" fill="#1B4BB7"/>
<path d="M15.9349 53.2192C16.4227 53.2192 16.8563 53.3263 17.2899 53.4869C17.7235 53.6476 18.1029 53.9153 18.3197 54.183C18.6449 54.5042 18.8617 54.879 19.0243 55.2002C19.1869 55.6286 19.2953 56.0034 19.2953 56.5388V61.8393H17.7235L17.3441 61.0362C17.1273 61.1968 16.9105 61.3574 16.6395 61.518C16.4227 61.6251 16.1517 61.7322 15.8265 61.8393C15.5013 61.9464 15.1761 61.9999 14.8509 61.9999C13.9295 61.9999 13.1707 61.7857 12.6829 61.3039C12.1409 60.822 11.9241 60.2866 11.9241 59.5906C11.9241 59.1622 12.0325 58.7875 12.1951 58.4662C12.3577 58.145 12.6829 57.7702 13.0081 57.556C13.4417 57.2883 13.9295 57.0742 14.5799 56.9671C15.2845 56.8065 16.0433 56.7529 17.0731 56.7529C17.0731 56.2711 16.9647 55.9498 16.6937 55.6821C16.4227 55.4144 16.0975 55.2538 15.6639 55.2538C15.3929 55.2538 15.1219 55.3073 14.9593 55.4144C14.7967 55.5215 14.6341 55.6286 14.5257 55.7356C14.4173 55.8963 14.3089 56.0569 14.3089 56.2175H12.1409C12.1951 55.7892 12.3035 55.4144 12.5203 55.1467C12.6829 54.7719 12.9539 54.4507 13.2791 54.2365C13.6043 53.9688 13.9837 53.7546 14.3631 53.594C14.9593 53.2728 15.4471 53.2192 15.9349 53.2192ZM15.3387 60.2331C15.9349 60.2331 16.3143 60.0724 16.6937 59.7512C17.0731 59.4299 17.2357 58.9481 17.2357 58.4662V58.0914C16.5853 58.0914 16.0975 58.145 15.7181 58.1985C15.3387 58.2521 15.0135 58.3591 14.8509 58.4662C14.6341 58.5733 14.4715 58.6804 14.4173 58.841C14.3631 59.0016 14.3089 59.1622 14.3089 59.3764C14.3089 59.6441 14.4173 59.8583 14.6341 60.0189C14.7967 60.126 15.0135 60.2331 15.3387 60.2331Z" fill="#1B4BB7"/>
<path d="M25.42 53.2192C25.5284 53.2192 25.6368 53.2192 25.691 53.2192C25.7452 53.2192 25.8536 53.2192 25.9078 53.2728C25.962 53.2728 26.0162 53.2728 26.1246 53.3263V55.575C26.0704 55.575 25.962 55.575 25.9078 55.5215C25.8536 55.5215 25.7452 55.5215 25.691 55.4679C25.5826 55.4679 25.4742 55.4679 25.3658 55.4679C24.8238 55.4679 24.4444 55.6286 24.065 56.0034C23.7398 56.3781 23.5772 56.8065 23.5772 57.3419V61.8928H21.4092V53.3263H22.981L23.3604 54.2365C23.523 54.0223 23.6856 53.8617 23.9024 53.7011C24.065 53.5405 24.2818 53.4334 24.5528 53.3263C24.7696 53.2728 25.0406 53.2192 25.42 53.2192Z" fill="#1B4BB7"/>
<path d="M30.8944 61.8927C30.3524 61.8927 29.8646 61.7856 29.3768 61.5715C28.889 61.3573 28.5096 61.036 28.076 60.6613C27.6966 60.2329 27.3713 59.8582 27.2087 59.2692C26.9919 58.7338 26.8835 58.1984 26.8835 57.5024C26.8835 56.8063 26.9919 56.3245 27.2087 55.7355C27.4255 55.2001 27.7508 54.7718 28.076 54.3435C28.4554 53.9152 28.889 53.6474 29.3768 53.4333C29.9188 53.1656 30.3524 53.112 30.8944 53.112C31.2738 53.112 31.599 53.1656 31.8158 53.2727C32.0868 53.3797 32.3578 53.4868 32.5746 53.5939C32.7914 53.701 33.0082 53.8616 33.1708 54.0222V50.1138H35.3388V61.8392H33.767L33.3876 61.0361C33.1708 61.1967 32.954 61.3573 32.683 61.5179C32.4662 61.625 32.1952 61.7321 31.87 61.8392C31.6532 61.8392 31.2738 61.8927 30.8944 61.8927ZM33.3876 57.5559C33.3876 56.8063 33.1708 56.3245 32.7372 55.8426C32.3036 55.4143 31.8158 55.2001 31.2196 55.2001C30.5692 55.2001 30.1356 55.4143 29.702 55.8426C29.2684 56.2709 29.0516 56.8063 29.0516 57.5559C29.0516 58.3055 29.2684 58.7873 29.702 59.2692C30.1356 59.6975 30.6234 59.9117 31.2196 59.9117C31.87 59.9117 32.3036 59.6975 32.7372 59.2692C33.1708 58.7873 33.3876 58.3055 33.3876 57.5559Z" fill="#1B4BB7"/>
<path d="M43.523 50.1675H46.0162L42.3306 55.9499L46.1788 61.8929H43.6856L41.084 57.6632L38.4824 61.8929H35.9891L39.8374 55.9499L36.1517 50.1675H38.645L41.1382 54.2901L43.523 50.1675Z" fill="#1B4BB7"/>
<path d="M50.8944 53.2192C51.3822 53.2192 51.8158 53.3263 52.2494 53.4869C52.683 53.6476 53.0624 53.9153 53.2792 54.183C53.6044 54.5042 53.8212 54.879 53.9838 55.2002C54.1464 55.6286 54.2548 56.0034 54.2548 56.5388V61.8393H52.683L52.3036 61.0362C52.0868 61.1968 51.87 61.3574 51.599 61.518C51.3822 61.6251 51.1112 61.7322 50.786 61.8393C50.4608 61.9464 50.1356 61.9999 49.8104 61.9999C48.889 61.9999 48.1302 61.7857 47.6424 61.3039C47.1003 60.822 46.8835 60.2866 46.8835 59.5906C46.8835 59.1622 46.9919 58.7875 47.1545 58.4662C47.3171 58.0914 47.6424 57.7702 47.9676 57.556C48.2928 57.3419 48.889 57.0742 49.5394 56.9671C50.244 56.8065 51.0028 56.7529 52.0326 56.7529C52.0326 56.2711 51.9242 55.9498 51.6532 55.6821C51.3822 55.4144 51.057 55.2538 50.6234 55.2538C50.3524 55.2538 50.0814 55.3073 49.9188 55.4144C49.7562 55.5215 49.5936 55.6286 49.4852 55.7356C49.3768 55.8963 49.2684 56.0569 49.2684 56.2175H47.1003C47.1545 55.7892 47.2629 55.4144 47.4798 55.1467C47.6424 54.7719 47.9134 54.4507 48.2386 54.2365C48.5638 53.9688 48.9432 53.7546 49.3226 53.594C49.9188 53.3263 50.4066 53.2192 50.8944 53.2192ZM50.2982 60.2331C50.8944 60.2331 51.2738 60.0724 51.6532 59.7512C52.0326 59.4299 52.1952 59.0016 52.1952 58.4662V58.0914C51.5448 58.0914 51.057 58.145 50.6776 58.1985C50.2982 58.2521 49.973 58.3591 49.8104 58.4662C49.5936 58.5733 49.431 58.6804 49.3768 58.841C49.3226 59.0016 49.2684 59.1622 49.2684 59.3764C49.2684 59.6441 49.3768 59.8583 49.5936 60.0189C49.6478 60.1795 49.9188 60.2331 50.2982 60.2331Z" fill="#1B4BB7"/>
<path d="M60.7047 61.9464C60.3253 61.9464 59.9459 61.8929 59.7291 61.7858C59.4039 61.6787 59.1329 61.5716 58.9161 61.4645C58.6451 61.3039 58.4283 61.1433 58.2115 60.9827L57.8321 61.7858H56.2603V50.1675H58.4283V54.0759C58.5909 53.9153 58.8077 53.8082 59.0245 53.6476C59.2413 53.5405 59.4581 53.4335 59.7291 53.3264C60.0001 53.2193 60.3253 53.1658 60.6505 53.1658C61.1925 53.1658 61.6803 53.2728 62.1681 53.487C62.6559 53.7012 63.0353 54.0224 63.4689 54.3972C63.9025 54.8255 64.1735 55.2003 64.3361 55.7892C64.5529 56.3246 64.6613 56.8601 64.6613 57.5561C64.6613 58.1986 64.5529 58.734 64.3361 59.3229C64.1193 59.9119 63.7941 60.2867 63.4689 60.715C63.0895 61.1433 62.6559 61.411 62.1681 61.6252C61.7345 61.8393 61.2467 61.9464 60.7047 61.9464ZM58.2657 57.6096C58.2657 58.3592 58.4825 58.8411 58.9161 59.3229C59.3497 59.8048 59.8375 59.9654 60.4337 59.9654C61.0299 59.9654 61.5177 59.7512 61.9513 59.3229C62.3849 58.8946 62.6017 58.3592 62.6017 57.6096C62.6017 56.8601 62.3849 56.3782 61.9513 55.8963C61.5177 55.468 61.0299 55.2538 60.4337 55.2538C59.8375 55.2538 59.3497 55.468 58.9161 55.8963C58.4825 56.3246 58.2657 56.8601 58.2657 57.6096Z" fill="#1B4BB7"/>
<path d="M69.9187 53.2192C70.4065 53.2192 70.8401 53.3263 71.2737 53.4869C71.7073 53.6476 72.0867 53.9153 72.3035 54.183C72.6287 54.5042 72.8455 54.879 73.0081 55.2002C73.1707 55.6286 73.2791 56.0034 73.2791 56.5388V61.8393H71.7073L71.3279 61.0362C71.1111 61.1968 70.8943 61.3574 70.6233 61.518C70.4065 61.6251 70.1355 61.7322 69.8103 61.8393C69.4851 61.9464 69.1599 61.9999 68.8347 61.9999C67.9133 61.9999 67.1545 61.7857 66.6666 61.3039C66.1246 60.822 65.9078 60.2866 65.9078 59.5906C65.9078 59.1622 66.0162 58.7875 66.1788 58.4662C66.3414 58.0914 66.6666 57.7702 66.9918 57.556C67.3171 57.3419 67.9133 57.0742 68.5637 56.9671C69.2683 56.8065 70.0271 56.7529 71.0569 56.7529C71.0569 56.2711 70.9485 55.9498 70.6775 55.6821C70.4065 55.4144 70.0813 55.2538 69.6477 55.2538C69.3767 55.2538 69.1057 55.3073 68.9431 55.4144C68.7805 55.5215 68.6179 55.6286 68.5095 55.7356C68.4011 55.8963 68.2927 56.0569 68.2927 56.2175H66.1246C66.1788 55.7892 66.2872 55.4144 66.504 55.1467C66.6666 54.7719 66.9376 54.4507 67.2629 54.2365C67.5881 53.9688 67.9675 53.7546 68.3469 53.594C68.8889 53.3263 69.3225 53.2192 69.9187 53.2192ZM69.2141 60.2331C69.8103 60.2331 70.1897 60.0724 70.5691 59.7512C70.9485 59.4299 71.1111 59.0016 71.1111 58.4662V58.0914C70.4607 58.0914 69.9729 58.145 69.5935 58.1985C69.2141 58.2521 68.8889 58.3591 68.7263 58.4662C68.5095 58.5733 68.3469 58.6804 68.2927 58.841C68.2385 59.0016 68.1843 59.1622 68.1843 59.3764C68.1843 59.6441 68.2927 59.8583 68.5095 60.0189C68.6721 60.1795 68.9431 60.2331 69.2141 60.2331Z" fill="#1B4BB7"/>
<path d="M79.2954 53.2192C79.4038 53.2192 79.5122 53.2192 79.5664 53.2192C79.6206 53.2192 79.729 53.2192 79.7832 53.2728C79.8374 53.3263 79.8916 53.2728 80 53.3263V55.575C79.9458 55.575 79.8916 55.575 79.7832 55.5215C79.729 55.5215 79.6206 55.5215 79.5664 55.4679C79.5122 55.4144 79.3496 55.4679 79.2412 55.4679C78.6992 55.4679 78.3198 55.6286 77.9404 56.0034C77.6152 56.3781 77.4526 56.8065 77.4526 57.3419V61.8928H75.2303V53.3263H76.8022L77.1816 54.2365C77.3442 54.0223 77.5068 53.8617 77.7236 53.7011C77.8862 53.5405 78.103 53.4334 78.374 53.3263C78.6992 53.2728 79.0244 53.2192 79.2954 53.2192Z" fill="#1B4BB7"/>
</svg>
