<svg width="32" height="32" viewBox="0 0 32 32" fill="none" xmlns="http://www.w3.org/2000/svg">
<path d="M18.1014 23.028L11.2881 19.312C10.634 19.9612 9.80247 20.4022 8.89817 20.5795C7.99387 20.7568 7.05733 20.6623 6.20662 20.3081C5.35591 19.9539 4.62911 19.3557 4.11785 18.5891C3.6066 17.8224 3.33377 16.9215 3.33377 16C3.33377 15.0785 3.6066 14.1776 4.11785 13.4109C4.62911 12.6442 5.35591 12.0461 6.20662 11.6919C7.05733 11.3376 7.99387 11.2432 8.89817 11.4205C9.80247 11.5978 10.634 12.0388 11.2881 12.688L18.1014 8.97198C17.8677 7.87563 18.0365 6.7318 18.5768 5.74966C19.1172 4.76751 19.993 4.01269 21.0442 3.62323C22.0953 3.23377 23.2516 3.23568 24.3014 3.62863C25.3512 4.02158 26.2246 4.7793 26.7617 5.76323C27.2988 6.74716 27.4637 7.89155 27.2264 8.98712C26.9891 10.0827 26.3654 11.0562 25.4693 11.7297C24.5732 12.4032 23.4646 12.7316 22.3462 12.6549C21.2279 12.5782 20.1745 12.1015 19.3787 11.312L12.5654 15.028C12.7013 15.6689 12.7013 16.3311 12.5654 16.972L19.3787 20.688C20.1745 19.8985 21.2279 19.4218 22.3462 19.3451C23.4646 19.2683 24.5732 19.5968 25.4693 20.2702C26.3654 20.9437 26.9891 21.9173 27.2264 23.0128C27.4637 24.1084 27.2988 25.2528 26.7617 26.2367C26.2246 27.2207 25.3512 27.9784 24.3014 28.3713C23.2516 28.7643 22.0953 28.7662 21.0442 28.3767C19.993 27.9873 19.1172 27.2325 18.5768 26.2503C18.0365 25.2682 17.8677 24.1243 18.1014 23.028Z" fill="#19B7E9"/>
</svg>
