<svg width="32" height="32" viewBox="0 0 32 32" fill="none" xmlns="http://www.w3.org/2000/svg">
<path d="M17.3333 18.7495V29.3335H5.33331C5.33317 27.8201 5.65509 26.3239 6.27767 24.9445C6.90025 23.5651 7.80925 22.3339 8.94427 21.3328C10.0793 20.3317 11.4143 19.5836 12.8607 19.1382C14.3071 18.6928 15.8318 18.5603 17.3333 18.7495ZM16 17.3335C11.58 17.3335 7.99998 13.7535 7.99998 9.3335C7.99998 4.9135 11.58 1.3335 16 1.3335C20.42 1.3335 24 4.9135 24 9.3335C24 13.7535 20.42 17.3335 16 17.3335ZM23.724 26.5522L28.4373 21.8388L30.324 23.7242L23.724 30.3242L19.0093 25.6095L20.896 23.7242L23.7226 26.5522H23.724Z" fill="#19E9AA"/>
</svg>
