<svg width="32" height="32" viewBox="0 0 32 32" fill="none" xmlns="http://www.w3.org/2000/svg">
<path d="M18.6666 19.0028V29.3335H5.33331C5.3329 27.7053 5.70521 26.0987 6.42171 24.6367C7.13821 23.1747 8.1799 21.8961 9.46694 20.8989C10.754 19.9017 12.2522 19.2123 13.8469 18.8837C15.4415 18.555 17.0902 18.5958 18.6666 19.0028ZM16 17.3335C11.58 17.3335 7.99998 13.7535 7.99998 9.3335C7.99998 4.9135 11.58 1.3335 16 1.3335C20.42 1.3335 24 4.9135 24 9.3335C24 13.7535 20.42 17.3335 16 17.3335ZM25.3333 22.1148L28.1613 19.2855L30.048 21.1722L27.2186 24.0002L30.048 26.8282L28.1613 28.7148L25.3333 25.8855L22.5053 28.7148L20.6186 26.8282L23.448 24.0002L20.6186 21.1722L22.5053 19.2855L25.3333 22.1148Z" fill="#FF4343"/>
</svg>
