<svg width="26" height="30" viewBox="0 0 26 30" fill="none" xmlns="http://www.w3.org/2000/svg">
<g clip-path="url(#clip0)">
<path fill-rule="evenodd" clip-rule="evenodd" d="M24.6287 16.0251C24.6287 20.7523 23.6078 24.2755 21.5671 26.5712C19.5259 28.8664 16.3724 30.014 12.1212 30.014C8.14905 30.014 5.13569 28.8664 3.08113 26.5712C1.02554 24.276 -0.000976562 20.8142 -0.000976562 16.1864V0.659571C-0.000570206 0.484774 0.0652287 0.31726 0.182031 0.193659C0.298834 0.0700585 0.457135 0.000430007 0.622318 0L7.82484 0C7.98994 0.000714566 8.14808 0.0704344 8.26483 0.193973C8.38157 0.317513 8.44746 0.484862 8.44813 0.659571V16.5257C8.44813 18.4153 8.77851 19.8697 9.45105 20.8957C9.95441 21.6019 10.6722 22.1033 11.4837 22.3156C12.2953 22.5278 13.1511 22.438 13.9075 22.0612C14.4089 21.8116 14.8498 21.4441 15.1966 20.9869C15.8543 20.0244 16.1816 18.6059 16.1796 16.7309V13.7598H24.6287V16.0251Z" fill="#2697FF"/>
<path fill-rule="evenodd" clip-rule="evenodd" d="M23.9768 12.0243H16.1813V0.691057C16.1817 0.50791 16.2506 0.332386 16.373 0.202881C16.4954 0.0733758 16.6612 0.000430094 16.8343 0L18.0014 0C18.0027 1.85844 18.7015 3.64024 19.9441 4.95357C21.1869 6.26732 22.8717 7.00536 24.6283 7.00557H24.6304V12.0243H23.9768Z" fill="#2697FF"/>
<path fill-rule="evenodd" clip-rule="evenodd" d="M19.6615 0H23.9774C24.1504 0.00057265 24.3162 0.0735641 24.4385 0.203039C24.5609 0.332513 24.6299 0.507954 24.6304 0.691057V5.26191C23.3129 5.26163 22.0495 4.70778 21.1177 3.72211C20.186 2.73643 19.6622 1.3996 19.6615 0.00542857V0Z" fill="#2697FF"/>
</g>
<defs>
<clipPath id="clip0">
<rect width="26" height="30" fill="white"/>
</clipPath>
</defs>
</svg>
